<?xml version="1.0" encoding="utf-8" standalone="no"?>
<!DOCTYPE svg PUBLIC "-//W3C//DTD SVG 1.1//EN"
  "http://www.w3.org/Graphics/SVG/1.1/DTD/svg11.dtd">
<!-- Created with matplotlib (https://matplotlib.org/) -->
<svg height="864pt" version="1.1" viewBox="0 0 1152 864" width="1152pt" xmlns="http://www.w3.org/2000/svg" xmlns:xlink="http://www.w3.org/1999/xlink">
 <defs>
  <style type="text/css">
*{stroke-linecap:butt;stroke-linejoin:round;}
  </style>
 </defs>
 <g id="figure_1">
  <g id="patch_1">
   <path d="M 0 864 
L 1152 864 
L 1152 0 
L 0 0 
z
" style="fill:#ffffff;"/>
  </g>
  <g id="axes_1">
   <g id="line2d_1">
    <path clip-path="url(#p7fab666d2a)" d="M 383.625 523.125 
L 363.375 543.375 
L 383.625 563.625 
L 363.375 583.875 
L 403.875 624.375 
L 424.125 604.125 
L 414 594 
L 403.875 604.125 
L 383.625 583.875 
L 424.125 543.375 
L 444.375 563.625 
L 464.625 543.375 
L 484.875 563.625 
L 525.375 523.125 
L 505.125 502.875 
L 495 513 
L 484.875 502.875 
L 505.125 482.625 
L 565.875 543.375 
L 586.125 523.125 
L 565.875 502.875 
L 586.125 482.625 
L 606.375 502.875 
L 626.625 482.625 
L 606.375 462.375 
L 626.625 442.125 
L 586.125 401.625 
L 565.875 421.875 
L 586.125 442.125 
L 565.875 462.375 
L 525.375 421.875 
L 545.625 401.625 
L 525.375 381.375 
L 545.625 361.125 
L 505.125 320.625 
L 484.875 340.875 
L 495 351 
L 484.875 361.125 
L 464.625 340.875 
L 525.375 280.125 
L 505.125 259.875 
L 484.875 280.125 
L 464.625 259.875 
L 525.375 199.125 
L 505.125 178.875 
L 484.875 199.125 
L 464.625 178.875 
L 505.125 138.375 
L 525.375 158.625 
L 545.625 138.375 
L 565.875 158.625 
L 606.375 118.125 
L 586.125 97.875 
L 576 108 
L 565.875 97.875 
L 586.125 77.625 
L 626.625 118.125 
L 606.375 138.375 
L 626.625 158.625 
L 606.375 178.875 
L 646.875 219.375 
L 667.125 199.125 
L 646.875 178.875 
L 667.125 158.625 
L 707.625 199.125 
L 687.375 219.375 
L 707.625 239.625 
L 687.375 259.875 
L 727.875 300.375 
L 748.125 280.125 
L 738 270 
L 748.125 259.875 
L 768.375 280.125 
L 727.875 320.625 
L 707.625 300.375 
L 687.375 320.625 
L 667.125 300.375 
L 626.625 340.875 
L 646.875 361.125 
L 657 351 
L 646.875 340.875 
L 667.125 320.625 
L 727.875 381.375 
L 748.125 361.125 
L 727.875 340.875 
L 748.125 320.625 
L 768.375 340.875 
L 788.625 320.625 
L 768.375 300.375 
L 788.625 280.125 
L 748.125 239.625 
L 727.875 259.875 
L 738 270 
L 727.875 280.125 
L 707.625 259.875 
L 748.125 219.375 
L 768.375 239.625 
L 788.625 219.375 
L 808.875 239.625 
L 849.375 199.125 
L 829.125 178.875 
L 808.875 199.125 
L 788.625 178.875 
L 829.125 138.375 
L 849.375 158.625 
L 869.625 138.375 
L 889.875 158.625 
L 930.375 118.125 
L 910.125 97.875 
L 900 108 
L 889.875 97.875 
L 910.125 77.625 
L 950.625 118.125 
L 930.375 138.375 
L 950.625 158.625 
L 930.375 178.875 
L 970.875 219.375 
L 991.125 199.125 
L 970.875 178.875 
L 991.125 158.625 
L 1031.625 199.125 
L 1011.375 219.375 
L 1031.625 239.625 
L 1011.375 259.875 
L 1051.875 300.375 
L 1072.125 280.125 
L 1062 270 
L 1072.125 259.875 
L 1092.375 280.125 
L 1051.875 320.625 
L 1031.625 300.375 
L 1011.375 320.625 
L 991.125 300.375 
L 1011.375 280.125 
L 991.125 259.875 
L 970.875 280.125 
L 950.625 259.875 
L 970.875 239.625 
L 950.625 219.375 
L 930.375 239.625 
L 910.125 219.375 
L 869.625 259.875 
L 889.875 280.125 
L 900 270 
L 889.875 259.875 
L 910.125 239.625 
L 950.625 280.125 
L 930.375 300.375 
L 950.625 320.625 
L 930.375 340.875 
L 910.125 320.625 
L 889.875 340.875 
L 910.125 361.125 
L 889.875 381.375 
L 869.625 361.125 
L 849.375 381.375 
L 869.625 401.625 
L 849.375 421.875 
L 889.875 462.375 
L 910.125 442.125 
L 900 432 
L 889.875 442.125 
L 869.625 421.875 
L 910.125 381.375 
L 930.375 401.625 
L 950.625 381.375 
L 970.875 401.625 
L 950.625 421.875 
L 970.875 442.125 
L 991.125 421.875 
L 1011.375 442.125 
L 991.125 462.375 
L 1011.375 482.625 
L 1031.625 462.375 
L 1051.875 482.625 
L 1092.375 442.125 
L 1072.125 421.875 
L 1062 432 
L 1072.125 442.125 
L 1051.875 462.375 
L 1011.375 421.875 
L 1031.625 401.625 
L 1011.375 381.375 
L 1031.625 361.125 
L 991.125 320.625 
L 970.875 340.875 
L 981 351 
L 970.875 361.125 
L 950.625 340.875 
L 991.125 300.375 
L 991.125 300.375 
" style="fill:none;stroke:#1f77b4;stroke-linecap:square;stroke-width:1.5;"/>
   </g>
   <g id="line2d_2">
    <path clip-path="url(#p7fab666d2a)" d="M 282.375 502.875 
L 322.875 543.375 
L 343.125 523.125 
L 322.875 502.875 
L 343.125 482.625 
L 403.875 543.375 
L 424.125 523.125 
L 403.875 502.875 
L 424.125 482.625 
L 484.875 543.375 
L 505.125 523.125 
L 495 513 
L 484.875 523.125 
L 464.625 502.875 
L 525.375 442.125 
L 505.125 421.875 
L 484.875 442.125 
L 464.625 421.875 
L 484.875 401.625 
L 464.625 381.375 
L 444.375 401.625 
L 424.125 381.375 
L 383.625 421.875 
L 403.875 442.125 
L 424.125 421.875 
L 444.375 442.125 
L 403.875 482.625 
L 383.625 462.375 
L 363.375 482.625 
L 343.125 462.375 
L 302.625 502.875 
L 322.875 523.125 
L 343.125 502.875 
L 363.375 523.125 
L 322.875 563.625 
L 302.625 543.375 
L 282.375 563.625 
L 262.125 543.375 
L 221.625 583.875 
L 241.875 604.125 
L 252 594 
L 241.875 583.875 
L 262.125 563.625 
L 302.625 604.125 
L 282.375 624.375 
L 302.625 644.625 
L 282.375 664.875 
L 322.875 705.375 
L 343.125 685.125 
L 333 675 
L 322.875 685.125 
L 302.625 664.875 
L 343.125 624.375 
L 363.375 644.625 
L 383.625 624.375 
L 403.875 644.625 
L 444.375 604.125 
L 424.125 583.875 
L 414 594 
L 403.875 583.875 
L 424.125 563.625 
L 464.625 604.125 
L 444.375 624.375 
L 464.625 644.625 
L 444.375 664.875 
L 424.125 644.625 
L 403.875 664.875 
L 424.125 685.125 
L 403.875 705.375 
L 383.625 685.125 
L 363.375 705.375 
L 383.625 725.625 
L 363.375 745.875 
L 403.875 786.375 
L 424.125 766.125 
L 414 756 
L 403.875 766.125 
L 383.625 745.875 
L 424.125 705.375 
L 444.375 725.625 
L 464.625 705.375 
L 484.875 725.625 
L 525.375 685.125 
L 505.125 664.875 
L 495 675 
L 484.875 664.875 
L 505.125 644.625 
L 565.875 705.375 
L 586.125 685.125 
L 565.875 664.875 
L 586.125 644.625 
L 606.375 664.875 
L 626.625 644.625 
L 606.375 624.375 
L 626.625 604.125 
L 586.125 563.625 
L 565.875 583.875 
L 576 594 
L 565.875 604.125 
L 545.625 583.875 
L 586.125 543.375 
L 606.375 563.625 
L 626.625 543.375 
L 646.875 563.625 
L 687.375 523.125 
L 667.125 502.875 
L 646.875 523.125 
L 626.625 502.875 
L 687.375 442.125 
L 667.125 421.875 
L 646.875 442.125 
L 626.625 421.875 
L 687.375 361.125 
L 667.125 340.875 
L 657 351 
L 667.125 361.125 
L 646.875 381.375 
L 606.375 340.875 
L 626.625 320.625 
L 606.375 300.375 
L 626.625 280.125 
L 586.125 239.625 
L 565.875 259.875 
L 576 270 
L 586.125 259.875 
L 606.375 280.125 
L 565.875 320.625 
L 545.625 300.375 
L 525.375 320.625 
L 505.125 300.375 
L 505.125 300.375 
" style="fill:none;stroke:#ff7f0e;stroke-linecap:square;stroke-width:1.5;"/>
   </g>
   <g id="line2d_3">
    <path clip-path="url(#p7fab666d2a)" d="M 221.625 523.125 
L 231.75 533.25 
L 241.875 543.375 
L 252 533.25 
L 262.125 523.125 
L 252 513 
L 241.875 502.875 
L 252 492.75 
L 262.125 482.625 
L 272.25 492.75 
L 282.375 502.875 
L 292.5 492.75 
L 302.625 482.625 
L 292.5 472.5 
L 282.375 462.375 
L 292.5 452.25 
L 302.625 442.125 
L 292.5 432 
L 282.375 421.875 
L 272.25 411.75 
L 262.125 401.625 
L 252 411.75 
L 241.875 421.875 
L 252 432 
L 262.125 442.125 
L 252 452.25 
L 241.875 462.375 
L 231.75 452.25 
L 221.625 442.125 
L 211.5 432 
L 201.375 421.875 
L 211.5 411.75 
L 221.625 401.625 
L 211.5 391.5 
L 201.375 381.375 
L 211.5 371.25 
L 221.625 361.125 
L 231.75 371.25 
L 241.875 381.375 
L 252 371.25 
L 262.125 361.125 
L 252 351 
L 241.875 340.875 
L 252 330.75 
L 262.125 320.625 
L 272.25 330.75 
L 282.375 340.875 
L 292.5 330.75 
L 302.625 320.625 
L 292.5 310.5 
L 282.375 300.375 
L 292.5 290.25 
L 302.625 280.125 
L 292.5 270 
L 282.375 259.875 
L 272.25 249.75 
L 262.125 239.625 
L 252 249.75 
L 241.875 259.875 
L 252 270 
L 262.125 280.125 
L 252 290.25 
L 241.875 300.375 
L 231.75 290.25 
L 221.625 280.125 
L 211.5 270 
L 201.375 259.875 
L 211.5 249.75 
L 221.625 239.625 
L 211.5 229.5 
L 201.375 219.375 
L 211.5 209.25 
L 221.625 199.125 
L 231.75 209.25 
L 241.875 219.375 
L 252 209.25 
L 262.125 199.125 
L 252 189 
L 241.875 178.875 
L 252 168.75 
L 262.125 158.625 
L 272.25 168.75 
L 282.375 178.875 
L 292.5 189 
L 302.625 199.125 
L 312.75 209.25 
L 322.875 219.375 
L 333 209.25 
L 343.125 199.125 
L 333 189 
L 322.875 178.875 
L 333 168.75 
L 343.125 158.625 
L 353.25 168.75 
L 363.375 178.875 
L 373.5 189 
L 383.625 199.125 
L 373.5 209.25 
L 363.375 219.375 
L 373.5 229.5 
L 383.625 239.625 
L 373.5 249.75 
L 363.375 259.875 
L 373.5 270 
L 383.625 280.125 
L 393.75 290.25 
L 403.875 300.375 
L 414 290.25 
L 424.125 280.125 
L 414 270 
L 403.875 280.125 
L 393.75 270 
L 383.625 259.875 
L 393.75 249.75 
L 403.875 239.625 
L 414 229.5 
L 424.125 219.375 
L 434.25 229.5 
L 444.375 239.625 
L 454.5 229.5 
L 464.625 219.375 
L 474.75 229.5 
L 484.875 239.625 
" style="fill:none;stroke:#2ca02c;stroke-linecap:square;stroke-width:1.5;"/>
   </g>
   <g id="line2d_4">
    <path clip-path="url(#p7fab666d2a)" d="M 383.625 361.125 
L 373.5 371.25 
L 363.375 381.375 
L 373.5 391.5 
L 383.625 401.625 
L 373.5 411.75 
L 363.375 421.875 
L 373.5 432 
L 383.625 442.125 
L 393.75 452.25 
L 403.875 462.375 
L 414 452.25 
L 424.125 442.125 
L 414 432 
L 403.875 421.875 
L 414 411.75 
L 424.125 401.625 
L 434.25 411.75 
L 444.375 421.875 
L 454.5 432 
L 464.625 442.125 
L 454.5 452.25 
L 444.375 462.375 
L 454.5 472.5 
L 464.625 482.625 
L 454.5 492.75 
L 444.375 502.875 
" style="fill:none;stroke:#d62728;stroke-linecap:square;stroke-width:1.5;"/>
   </g>
   <g id="line2d_5">
    <path clip-path="url(#p7fab666d2a)" d="M 322.875 401.625 
L 312.75 411.75 
L 302.625 421.875 
L 312.75 432 
L 322.875 442.125 
L 333 432 
L 343.125 421.875 
L 353.25 432 
L 363.375 442.125 
L 353.25 452.25 
L 343.125 462.375 
" style="fill:none;stroke:#9467bd;stroke-linecap:square;stroke-width:1.5;"/>
   </g>
   <g id="line2d_6">
    <path clip-path="url(#p7fab666d2a)" d="M 322.875 239.625 
L 312.75 249.75 
L 302.625 259.875 
L 312.75 270 
L 322.875 280.125 
L 333 270 
L 343.125 259.875 
L 353.25 270 
L 363.375 280.125 
L 353.25 290.25 
L 343.125 300.375 
L 353.25 310.5 
L 363.375 320.625 
L 373.5 310.5 
L 383.625 300.375 
L 393.75 310.5 
L 403.875 320.625 
L 414 310.5 
L 424.125 300.375 
L 434.25 290.25 
L 444.375 280.125 
L 434.25 270 
L 424.125 259.875 
L 414 270 
L 403.875 259.875 
L 414 249.75 
L 424.125 239.625 
L 434.25 249.75 
L 444.375 259.875 
L 454.5 270 
L 464.625 280.125 
L 454.5 290.25 
L 444.375 300.375 
L 454.5 310.5 
L 464.625 320.625 
L 454.5 330.75 
L 444.375 340.875 
L 454.5 351 
L 464.625 361.125 
L 474.75 371.25 
L 484.875 381.375 
L 495 371.25 
L 505.125 361.125 
L 495 351 
L 505.125 340.875 
L 515.25 351 
L 525.375 361.125 
L 515.25 371.25 
L 505.125 381.375 
L 495 391.5 
L 484.875 401.625 
" style="fill:none;stroke:#8c564b;stroke-linecap:square;stroke-width:1.5;"/>
   </g>
   <g id="line2d_7">
    <path clip-path="url(#p7fab666d2a)" d="M 505.125 624.375 
L 515.25 634.5 
L 525.375 644.625 
L 535.5 634.5 
L 545.625 624.375 
L 555.75 634.5 
L 565.875 644.625 
L 576 634.5 
L 586.125 624.375 
L 596.25 614.25 
L 606.375 604.125 
L 596.25 594 
L 586.125 583.875 
L 576 594 
L 586.125 604.125 
L 576 614.25 
L 565.875 624.375 
L 555.75 614.25 
L 545.625 604.125 
L 535.5 594 
L 525.375 583.875 
L 535.5 573.75 
L 545.625 563.625 
L 535.5 553.5 
L 525.375 543.375 
L 535.5 533.25 
L 545.625 523.125 
" style="fill:none;stroke:#e377c2;stroke-linecap:square;stroke-width:1.5;"/>
   </g>
   <g id="line2d_8">
    <path clip-path="url(#p7fab666d2a)" d="M 545.625 199.125 
L 535.5 209.25 
L 525.375 219.375 
L 535.5 229.5 
L 545.625 239.625 
L 535.5 249.75 
L 525.375 259.875 
L 535.5 270 
L 545.625 280.125 
L 555.75 290.25 
L 565.875 300.375 
L 576 290.25 
L 586.125 280.125 
L 576 270 
L 565.875 280.125 
L 555.75 270 
L 545.625 259.875 
L 555.75 249.75 
L 565.875 239.625 
L 576 229.5 
L 586.125 219.375 
L 596.25 229.5 
L 606.375 239.625 
L 616.5 229.5 
L 626.625 219.375 
L 636.75 229.5 
L 646.875 239.625 
L 657 229.5 
L 667.125 219.375 
L 677.25 209.25 
L 687.375 199.125 
L 677.25 189 
L 667.125 178.875 
L 657 189 
L 646.875 199.125 
L 636.75 189 
L 626.625 178.875 
L 636.75 168.75 
L 646.875 158.625 
L 657 148.5 
L 667.125 138.375 
L 677.25 148.5 
L 687.375 158.625 
L 697.5 148.5 
L 707.625 138.375 
L 717.75 148.5 
L 727.875 158.625 
L 738 148.5 
L 748.125 138.375 
L 758.25 128.25 
L 768.375 118.125 
L 758.25 108 
L 748.125 97.875 
L 738 108 
L 727.875 97.875 
L 738 87.75 
L 748.125 77.625 
L 758.25 87.75 
L 768.375 97.875 
L 778.5 108 
L 788.625 118.125 
L 778.5 128.25 
L 768.375 138.375 
L 778.5 148.5 
L 788.625 158.625 
L 778.5 168.75 
L 768.375 178.875 
L 778.5 189 
L 788.625 199.125 
L 798.75 209.25 
L 808.875 219.375 
L 819 209.25 
L 829.125 199.125 
L 819 189 
L 808.875 178.875 
L 819 168.75 
L 829.125 158.625 
L 839.25 168.75 
L 849.375 178.875 
L 859.5 189 
L 869.625 199.125 
L 859.5 209.25 
L 849.375 219.375 
L 859.5 229.5 
L 869.625 239.625 
L 859.5 249.75 
L 849.375 259.875 
L 859.5 270 
L 869.625 280.125 
L 879.75 290.25 
L 889.875 300.375 
L 900 290.25 
L 910.125 280.125 
L 900 270 
L 910.125 259.875 
L 920.25 270 
L 930.375 280.125 
L 920.25 290.25 
L 910.125 300.375 
L 900 310.5 
L 889.875 320.625 
L 879.75 310.5 
L 869.625 300.375 
L 859.5 310.5 
L 849.375 320.625 
L 839.25 310.5 
L 829.125 300.375 
L 819 310.5 
L 808.875 320.625 
L 798.75 330.75 
L 788.625 340.875 
L 798.75 351 
L 808.875 361.125 
L 819 351 
L 808.875 340.875 
L 819 330.75 
L 829.125 320.625 
L 839.25 330.75 
L 849.375 340.875 
L 859.5 351 
L 869.625 361.125 
" style="fill:none;stroke:#7f7f7f;stroke-linecap:square;stroke-width:1.5;"/>
   </g>
   <g id="line2d_9">
    <path clip-path="url(#p7fab666d2a)" d="M 444.375 178.875 
L 454.5 189 
L 464.625 199.125 
L 474.75 209.25 
L 484.875 219.375 
L 495 209.25 
L 505.125 199.125 
L 495 189 
L 484.875 178.875 
L 495 168.75 
L 505.125 158.625 
L 515.25 168.75 
L 525.375 178.875 
L 535.5 189 
L 545.625 199.125 
L 555.75 209.25 
L 565.875 219.375 
L 576 209.25 
L 586.125 199.125 
L 576 189 
L 565.875 178.875 
L 576 168.75 
L 586.125 158.625 
L 596.25 168.75 
L 606.375 178.875 
" style="fill:none;stroke:#bcbd22;stroke-linecap:square;stroke-width:1.5;"/>
   </g>
   <g id="line2d_10">
    <path clip-path="url(#p7fab666d2a)" d="M 707.625 523.125 
L 727.875 543.375 
L 748.125 523.125 
L 727.875 502.875 
L 748.125 482.625 
L 768.375 502.875 
L 788.625 482.625 
L 768.375 462.375 
L 788.625 442.125 
L 748.125 401.625 
L 727.875 421.875 
L 738 432 
L 727.875 442.125 
L 707.625 421.875 
L 748.125 381.375 
L 768.375 401.625 
L 788.625 381.375 
L 808.875 401.625 
L 788.625 421.875 
L 808.875 442.125 
L 829.125 421.875 
L 849.375 442.125 
L 829.125 462.375 
L 849.375 482.625 
L 869.625 462.375 
L 889.875 482.625 
L 930.375 442.125 
L 910.125 421.875 
L 900 432 
L 889.875 421.875 
L 910.125 401.625 
L 950.625 442.125 
L 930.375 462.375 
L 950.625 482.625 
L 930.375 502.875 
L 970.875 543.375 
L 991.125 523.125 
L 981 513 
L 991.125 502.875 
L 1011.375 523.125 
L 950.625 583.875 
L 970.875 604.125 
L 991.125 583.875 
L 1011.375 604.125 
L 991.125 624.375 
L 1011.375 644.625 
L 1031.625 624.375 
L 1051.875 644.625 
L 1092.375 604.125 
L 1072.125 583.875 
L 1062 594 
L 1072.125 604.125 
L 1051.875 624.375 
L 1011.375 583.875 
L 1031.625 563.625 
L 1011.375 543.375 
L 1031.625 523.125 
L 991.125 482.625 
L 970.875 502.875 
L 981 513 
L 970.875 523.125 
L 950.625 502.875 
L 991.125 462.375 
L 991.125 462.375 
" style="fill:none;stroke:#17becf;stroke-linecap:square;stroke-width:1.5;"/>
   </g>
   <g id="line2d_11">
    <path clip-path="url(#p7fab666d2a)" d="M 667.125 624.375 
L 657 634.5 
L 646.875 644.625 
L 636.75 654.75 
L 626.625 664.875 
L 636.75 675 
L 646.875 685.125 
L 657 675 
L 667.125 685.125 
L 657 695.25 
L 646.875 705.375 
L 636.75 695.25 
L 626.625 685.125 
L 616.5 675 
L 606.375 664.875 
" style="fill:none;stroke:#1f77b4;stroke-linecap:square;stroke-width:1.5;"/>
   </g>
   <g id="line2d_12">
    <path clip-path="url(#p7fab666d2a)" d="M 869.625 523.125 
L 859.5 513 
L 849.375 502.875 
L 839.25 492.75 
L 829.125 482.625 
L 819 492.75 
L 808.875 502.875 
L 819 513 
L 829.125 502.875 
L 839.25 513 
L 849.375 523.125 
L 839.25 533.25 
L 829.125 543.375 
L 819 553.5 
L 808.875 563.625 
L 798.75 553.5 
L 788.625 543.375 
L 778.5 553.5 
L 768.375 563.625 
L 758.25 553.5 
L 748.125 543.375 
L 738 553.5 
L 727.875 563.625 
L 717.75 573.75 
L 707.625 583.875 
L 717.75 594 
L 727.875 604.125 
L 738 594 
L 748.125 583.875 
L 758.25 594 
L 768.375 604.125 
L 758.25 614.25 
L 748.125 624.375 
L 738 634.5 
L 727.875 644.625 
L 717.75 634.5 
L 707.625 624.375 
L 697.5 634.5 
L 687.375 644.625 
L 677.25 634.5 
L 667.125 624.375 
L 677.25 614.25 
L 687.375 604.125 
L 677.25 594 
L 667.125 583.875 
L 657 594 
L 646.875 604.125 
L 636.75 594 
L 626.625 583.875 
L 636.75 573.75 
L 646.875 563.625 
" style="fill:none;stroke:#ff7f0e;stroke-linecap:square;stroke-width:1.5;"/>
   </g>
   <g id="line2d_13">
    <path clip-path="url(#p7fab666d2a)" d="M 829.125 624.375 
L 819 634.5 
L 808.875 644.625 
L 798.75 654.75 
L 788.625 664.875 
L 798.75 675 
L 808.875 685.125 
L 819 675 
L 829.125 685.125 
L 819 695.25 
L 808.875 705.375 
L 798.75 695.25 
L 788.625 685.125 
L 778.5 675 
L 768.375 664.875 
L 778.5 654.75 
L 788.625 644.625 
L 778.5 634.5 
L 768.375 624.375 
L 778.5 614.25 
L 788.625 604.125 
L 778.5 594 
L 768.375 583.875 
L 758.25 573.75 
L 748.125 563.625 
L 738 573.75 
L 727.875 583.875 
L 738 594 
L 748.125 604.125 
L 738 614.25 
L 727.875 624.375 
L 717.75 614.25 
L 707.625 604.125 
L 697.5 594 
L 687.375 583.875 
L 697.5 573.75 
L 707.625 563.625 
L 697.5 553.5 
L 687.375 543.375 
L 697.5 533.25 
L 707.625 523.125 
L 697.5 513 
L 687.375 502.875 
L 677.25 492.75 
L 667.125 482.625 
L 657 492.75 
L 646.875 502.875 
L 657 513 
L 667.125 523.125 
L 657 533.25 
L 646.875 543.375 
L 636.75 533.25 
L 626.625 523.125 
L 616.5 513 
L 606.375 502.875 
" style="fill:none;stroke:#2ca02c;stroke-linecap:square;stroke-width:1.5;"/>
   </g>
   <g id="line2d_14">
    <path clip-path="url(#p7fab666d2a)" d="M 181.125 462.375 
L 171 472.5 
L 160.875 482.625 
L 150.75 492.75 
L 140.625 502.875 
L 150.75 513 
L 160.875 523.125 
L 171 513 
L 181.125 523.125 
L 171 533.25 
L 160.875 543.375 
L 150.75 533.25 
L 140.625 523.125 
L 130.5 513 
L 120.375 502.875 
L 130.5 492.75 
L 140.625 482.625 
L 130.5 472.5 
L 120.375 462.375 
L 130.5 452.25 
L 140.625 442.125 
L 130.5 432 
L 120.375 421.875 
L 110.25 411.75 
L 100.125 401.625 
L 90 411.75 
L 79.875 421.875 
L 90 432 
L 79.875 442.125 
L 69.75 432 
L 59.625 421.875 
L 69.75 411.75 
L 79.875 401.625 
L 90 391.5 
L 100.125 381.375 
L 110.25 391.5 
L 120.375 401.625 
L 130.5 391.5 
L 140.625 381.375 
L 150.75 391.5 
L 160.875 401.625 
L 150.75 411.75 
L 140.625 421.875 
L 150.75 432 
L 160.875 442.125 
L 171 432 
L 181.125 421.875 
L 191.25 432 
L 201.375 442.125 
L 191.25 452.25 
L 181.125 462.375 
L 191.25 472.5 
L 201.375 482.625 
L 211.5 472.5 
L 221.625 462.375 
L 231.75 472.5 
L 241.875 482.625 
L 252 472.5 
L 262.125 462.375 
L 272.25 452.25 
L 282.375 442.125 
L 272.25 432 
L 262.125 421.875 
L 252 432 
L 241.875 442.125 
L 231.75 432 
L 221.625 421.875 
L 231.75 411.75 
L 241.875 401.625 
L 252 391.5 
L 262.125 381.375 
L 272.25 391.5 
L 282.375 401.625 
L 292.5 391.5 
L 302.625 381.375 
L 312.75 391.5 
L 322.875 401.625 
L 333 391.5 
L 343.125 381.375 
L 353.25 371.25 
L 363.375 361.125 
L 353.25 351 
L 343.125 340.875 
L 333 351 
L 343.125 361.125 
L 333 371.25 
L 322.875 381.375 
L 312.75 371.25 
L 302.625 361.125 
L 292.5 351 
L 282.375 340.875 
" style="fill:none;stroke:#d62728;stroke-linecap:square;stroke-width:1.5;"/>
   </g>
   <g id="line2d_15">
    <path clip-path="url(#p7fab666d2a)" d="M 160.875 563.625 
L 201.375 523.125 
L 181.125 502.875 
L 171 513 
L 160.875 502.875 
L 181.125 482.625 
L 221.625 523.125 
L 201.375 543.375 
L 221.625 563.625 
L 201.375 583.875 
L 241.875 624.375 
L 262.125 604.125 
L 252 594 
L 262.125 583.875 
L 282.375 604.125 
L 241.875 644.625 
L 221.625 624.375 
L 201.375 644.625 
L 181.125 624.375 
L 201.375 604.125 
L 181.125 583.875 
L 160.875 604.125 
L 140.625 583.875 
L 160.875 563.625 
L 140.625 543.375 
L 120.375 563.625 
L 100.125 543.375 
L 59.625 583.875 
L 79.875 604.125 
L 90 594 
L 79.875 583.875 
L 100.125 563.625 
L 140.625 604.125 
L 120.375 624.375 
L 140.625 644.625 
L 120.375 664.875 
L 160.875 705.375 
L 181.125 685.125 
L 160.875 664.875 
L 181.125 644.625 
L 221.625 685.125 
L 201.375 705.375 
L 221.625 725.625 
L 201.375 745.875 
L 241.875 786.375 
L 262.125 766.125 
L 252 756 
L 241.875 766.125 
L 221.625 745.875 
L 262.125 705.375 
L 282.375 725.625 
L 302.625 705.375 
L 322.875 725.625 
L 363.375 685.125 
L 343.125 664.875 
L 333 675 
L 322.875 664.875 
L 343.125 644.625 
L 383.625 685.125 
L 383.625 685.125 
" style="fill:none;stroke:#9467bd;stroke-linecap:square;stroke-width:1.5;"/>
   </g>
   <g id="line2d_16">
    <path clip-path="url(#p7fab666d2a)" d="M 181.125 300.375 
L 191.25 290.25 
L 201.375 280.125 
L 191.25 270 
L 181.125 259.875 
L 171 270 
L 160.875 280.125 
L 150.75 270 
L 140.625 259.875 
L 150.75 249.75 
L 160.875 239.625 
L 150.75 229.5 
L 140.625 219.375 
L 130.5 229.5 
L 120.375 239.625 
L 110.25 229.5 
L 100.125 219.375 
L 90 229.5 
L 79.875 239.625 
L 69.75 249.75 
L 59.625 259.875 
L 69.75 270 
L 79.875 280.125 
L 90 270 
L 79.875 259.875 
L 90 249.75 
L 100.125 239.625 
L 110.25 249.75 
L 120.375 259.875 
L 130.5 270 
L 140.625 280.125 
L 130.5 290.25 
L 120.375 300.375 
L 130.5 310.5 
L 140.625 320.625 
L 130.5 330.75 
L 120.375 340.875 
L 130.5 351 
L 140.625 361.125 
L 150.75 371.25 
L 160.875 381.375 
L 171 371.25 
L 181.125 361.125 
L 171 351 
L 160.875 361.125 
L 150.75 351 
L 140.625 340.875 
L 150.75 330.75 
L 160.875 320.625 
L 171 310.5 
L 181.125 300.375 
L 191.25 310.5 
L 201.375 320.625 
L 211.5 310.5 
L 221.625 300.375 
L 231.75 310.5 
L 241.875 320.625 
L 252 310.5 
L 262.125 300.375 
L 272.25 290.25 
L 282.375 280.125 
L 272.25 270 
L 262.125 259.875 
L 252 270 
L 241.875 280.125 
L 231.75 270 
L 221.625 259.875 
L 231.75 249.75 
L 241.875 239.625 
L 252 229.5 
L 262.125 219.375 
L 272.25 229.5 
L 282.375 239.625 
L 292.5 229.5 
L 302.625 219.375 
L 312.75 229.5 
L 322.875 239.625 
L 333 229.5 
L 343.125 219.375 
L 353.25 209.25 
L 363.375 199.125 
L 353.25 189 
L 343.125 178.875 
L 333 189 
L 322.875 199.125 
L 312.75 189 
L 302.625 178.875 
L 312.75 168.75 
L 322.875 158.625 
L 333 148.5 
L 343.125 138.375 
L 353.25 148.5 
L 363.375 158.625 
L 373.5 148.5 
L 383.625 138.375 
L 393.75 148.5 
L 403.875 158.625 
L 414 148.5 
L 424.125 138.375 
L 434.25 128.25 
L 444.375 118.125 
L 434.25 108 
L 424.125 97.875 
L 414 108 
L 403.875 97.875 
L 414 87.75 
L 424.125 77.625 
L 434.25 87.75 
L 444.375 97.875 
L 454.5 108 
L 464.625 118.125 
L 454.5 128.25 
L 444.375 138.375 
L 454.5 148.5 
L 464.625 158.625 
L 454.5 168.75 
L 444.375 178.875 
L 434.25 168.75 
L 424.125 158.625 
L 414 168.75 
L 403.875 178.875 
L 414 189 
L 424.125 199.125 
L 414 209.25 
L 403.875 219.375 
L 393.75 209.25 
L 383.625 199.125 
" style="fill:none;stroke:#8c564b;stroke-linecap:square;stroke-width:1.5;"/>
   </g>
   <g id="line2d_17">
    <path clip-path="url(#p7fab666d2a)" d="M 707.625 685.125 
L 697.5 675 
L 687.375 664.875 
L 677.25 654.75 
L 667.125 644.625 
L 657 654.75 
L 646.875 664.875 
L 657 675 
L 667.125 664.875 
L 677.25 675 
L 687.375 685.125 
L 677.25 695.25 
L 667.125 705.375 
L 657 715.5 
L 646.875 725.625 
L 636.75 715.5 
L 626.625 705.375 
L 616.5 715.5 
L 606.375 725.625 
L 596.25 715.5 
L 586.125 705.375 
L 576 715.5 
L 565.875 725.625 
L 555.75 735.75 
L 545.625 745.875 
L 555.75 756 
L 565.875 766.125 
L 576 756 
L 586.125 766.125 
L 576 776.25 
L 565.875 786.375 
L 555.75 776.25 
L 545.625 766.125 
L 535.5 756 
L 525.375 745.875 
L 535.5 735.75 
L 545.625 725.625 
L 535.5 715.5 
L 525.375 705.375 
L 535.5 695.25 
L 545.625 685.125 
" style="fill:none;stroke:#e377c2;stroke-linecap:square;stroke-width:1.5;"/>
   </g>
   <g id="line2d_18">
    <path clip-path="url(#p7fab666d2a)" d="M 869.625 685.125 
L 859.5 675 
L 849.375 664.875 
L 839.25 654.75 
L 829.125 644.625 
L 819 654.75 
L 808.875 664.875 
L 819 675 
L 829.125 664.875 
L 839.25 675 
L 849.375 685.125 
L 839.25 695.25 
L 829.125 705.375 
L 819 715.5 
L 808.875 725.625 
L 798.75 715.5 
L 788.625 705.375 
L 778.5 715.5 
L 768.375 725.625 
L 758.25 715.5 
L 748.125 705.375 
L 738 715.5 
L 727.875 725.625 
L 717.75 735.75 
L 707.625 745.875 
L 717.75 756 
L 727.875 766.125 
L 738 756 
L 748.125 766.125 
L 738 776.25 
L 727.875 786.375 
L 717.75 776.25 
L 707.625 766.125 
L 697.5 756 
L 687.375 745.875 
L 697.5 735.75 
L 707.625 725.625 
L 697.5 715.5 
L 687.375 705.375 
L 697.5 695.25 
L 707.625 685.125 
L 717.75 695.25 
L 727.875 705.375 
L 738 695.25 
L 748.125 685.125 
L 738 675 
L 727.875 664.875 
L 738 654.75 
L 748.125 644.625 
L 758.25 654.75 
L 768.375 664.875 
" style="fill:none;stroke:#7f7f7f;stroke-linecap:square;stroke-width:1.5;"/>
   </g>
   <g id="line2d_19">
    <path clip-path="url(#p7fab666d2a)" d="M 484.875 563.625 
L 474.75 573.75 
L 464.625 583.875 
L 474.75 594 
L 484.875 604.125 
L 495 594 
L 505.125 583.875 
L 515.25 594 
L 525.375 604.125 
L 515.25 614.25 
L 505.125 624.375 
L 495 634.5 
L 484.875 644.625 
L 474.75 654.75 
L 464.625 664.875 
L 474.75 675 
L 484.875 685.125 
L 495 675 
L 505.125 685.125 
L 495 695.25 
L 484.875 705.375 
L 474.75 695.25 
L 464.625 685.125 
L 454.5 675 
L 444.375 664.875 
" style="fill:none;stroke:#bcbd22;stroke-linecap:square;stroke-width:1.5;"/>
   </g>
   <g id="line2d_20">
    <path clip-path="url(#p7fab666d2a)" d="M 545.625 361.125 
L 555.75 371.25 
L 565.875 381.375 
L 576 371.25 
L 586.125 361.125 
L 576 351 
L 565.875 340.875 
L 576 330.75 
L 586.125 320.625 
L 596.25 330.75 
L 606.375 340.875 
" style="fill:none;stroke:#17becf;stroke-linecap:square;stroke-width:1.5;"/>
   </g>
   <g id="line2d_21">
    <path clip-path="url(#p7fab666d2a)" d="M 707.625 199.125 
L 717.75 209.25 
L 727.875 219.375 
L 738 209.25 
L 748.125 199.125 
L 738 189 
L 727.875 178.875 
L 738 168.75 
L 748.125 158.625 
L 758.25 168.75 
L 768.375 178.875 
" style="fill:none;stroke:#1f77b4;stroke-linecap:square;stroke-width:1.5;"/>
   </g>
   <g id="line2d_22">
    <path clip-path="url(#p7fab666d2a)" d="M 667.125 300.375 
L 677.25 290.25 
L 687.375 280.125 
L 677.25 270 
L 667.125 259.875 
L 657 270 
L 646.875 280.125 
L 636.75 270 
L 626.625 259.875 
L 636.75 249.75 
L 646.875 239.625 
" style="fill:none;stroke:#ff7f0e;stroke-linecap:square;stroke-width:1.5;"/>
   </g>
   <g id="line2d_23">
    <path clip-path="url(#p7fab666d2a)" d="M 707.625 361.125 
L 697.5 371.25 
L 687.375 381.375 
L 697.5 391.5 
L 707.625 401.625 
L 697.5 411.75 
L 687.375 421.875 
L 697.5 432 
L 707.625 442.125 
L 717.75 452.25 
L 727.875 462.375 
L 738 452.25 
L 748.125 442.125 
L 738 432 
L 748.125 421.875 
L 758.25 432 
L 768.375 442.125 
L 758.25 452.25 
L 748.125 462.375 
L 738 472.5 
L 727.875 482.625 
L 717.75 472.5 
L 707.625 462.375 
L 697.5 472.5 
L 687.375 482.625 
L 677.25 472.5 
L 667.125 462.375 
" style="fill:none;stroke:#2ca02c;stroke-linecap:square;stroke-width:1.5;"/>
   </g>
   <g id="line2d_24">
    <path clip-path="url(#p7fab666d2a)" d="M 768.375 340.875 
L 778.5 351 
L 788.625 361.125 
L 798.75 371.25 
L 808.875 381.375 
L 819 371.25 
L 829.125 361.125 
L 819 351 
L 829.125 340.875 
L 839.25 351 
L 849.375 361.125 
L 839.25 371.25 
L 829.125 381.375 
L 819 391.5 
L 808.875 401.625 
" style="fill:none;stroke:#d62728;stroke-linecap:square;stroke-width:1.5;"/>
   </g>
   <g id="line2d_25">
    <path clip-path="url(#p7fab666d2a)" d="M 808.875 239.625 
L 798.75 249.75 
L 788.625 259.875 
L 798.75 270 
L 808.875 280.125 
L 819 270 
L 829.125 259.875 
L 839.25 270 
L 849.375 280.125 
L 839.25 290.25 
L 829.125 300.375 
" style="fill:none;stroke:#9467bd;stroke-linecap:square;stroke-width:1.5;"/>
   </g>
   <g id="line2d_26">
    <path clip-path="url(#p7fab666d2a)" d="M 930.375 178.875 
L 920.25 168.75 
L 910.125 158.625 
L 900 168.75 
L 889.875 178.875 
L 900 189 
L 910.125 199.125 
L 900 209.25 
L 889.875 219.375 
L 879.75 209.25 
L 869.625 199.125 
" style="fill:none;stroke:#8c564b;stroke-linecap:square;stroke-width:1.5;"/>
   </g>
   <g id="line2d_27">
    <path clip-path="url(#p7fab666d2a)" d="M 930.375 340.875 
L 940.5 351 
L 950.625 361.125 
L 960.75 371.25 
L 970.875 381.375 
L 981 371.25 
L 991.125 361.125 
L 981 351 
L 991.125 340.875 
L 1001.25 351 
L 1011.375 361.125 
L 1001.25 371.25 
L 991.125 381.375 
L 981 391.5 
L 970.875 401.625 
" style="fill:none;stroke:#e377c2;stroke-linecap:square;stroke-width:1.5;"/>
   </g>
   <g id="line2d_28">
    <path clip-path="url(#p7fab666d2a)" d="M 505.125 462.375 
L 515.25 472.5 
L 525.375 482.625 
L 535.5 472.5 
L 545.625 462.375 
L 555.75 472.5 
L 565.875 482.625 
L 576 472.5 
L 586.125 462.375 
L 596.25 452.25 
L 606.375 442.125 
L 596.25 432 
L 586.125 421.875 
L 576 432 
L 565.875 442.125 
L 555.75 432 
L 545.625 421.875 
L 555.75 411.75 
L 565.875 401.625 
L 576 391.5 
L 586.125 381.375 
L 596.25 391.5 
L 606.375 401.625 
L 616.5 391.5 
L 626.625 381.375 
L 636.75 391.5 
L 646.875 401.625 
" style="fill:none;stroke:#7f7f7f;stroke-linecap:square;stroke-width:1.5;"/>
   </g>
   <g id="line2d_29">
    <path clip-path="url(#p7fab666d2a)" d="M 322.875 563.625 
L 312.75 573.75 
L 302.625 583.875 
L 312.75 594 
L 322.875 604.125 
L 333 594 
L 343.125 583.875 
L 353.25 594 
L 363.375 604.125 
L 353.25 614.25 
L 343.125 624.375 
" style="fill:none;stroke:#bcbd22;stroke-linecap:square;stroke-width:1.5;"/>
   </g>
   <g id="line2d_30">
    <path clip-path="url(#p7fab666d2a)" d="M 282.375 664.875 
L 272.25 654.75 
L 262.125 644.625 
L 252 654.75 
L 241.875 664.875 
L 252 675 
L 262.125 685.125 
L 252 695.25 
L 241.875 705.375 
L 231.75 695.25 
L 221.625 685.125 
" style="fill:none;stroke:#17becf;stroke-linecap:square;stroke-width:1.5;"/>
   </g>
   <g id="line2d_31">
    <path clip-path="url(#p7fab666d2a)" d="M 221.625 361.125 
L 211.5 351 
L 201.375 340.875 
L 191.25 330.75 
L 181.125 320.625 
L 171 330.75 
L 160.875 340.875 
L 171 351 
L 181.125 340.875 
L 191.25 351 
L 201.375 361.125 
L 191.25 371.25 
L 181.125 381.375 
L 171 391.5 
L 160.875 401.625 
" style="fill:none;stroke:#1f77b4;stroke-linecap:square;stroke-width:1.5;"/>
   </g>
   <g id="line2d_32">
    <path clip-path="url(#p7fab666d2a)" d="M 282.375 178.875 
L 292.5 168.75 
L 302.625 158.625 
L 292.5 148.5 
L 282.375 138.375 
L 292.5 128.25 
L 302.625 118.125 
L 292.5 108 
L 282.375 97.875 
L 272.25 87.75 
L 262.125 77.625 
L 252 87.75 
L 241.875 97.875 
L 252 108 
L 262.125 97.875 
L 272.25 108 
L 282.375 118.125 
L 272.25 128.25 
L 262.125 138.375 
L 252 148.5 
L 241.875 158.625 
L 231.75 148.5 
L 221.625 138.375 
L 211.5 148.5 
L 201.375 158.625 
L 191.25 148.5 
L 181.125 138.375 
L 171 148.5 
L 160.875 158.625 
L 150.75 168.75 
L 140.625 178.875 
L 150.75 189 
L 160.875 199.125 
L 171 189 
L 181.125 178.875 
L 191.25 189 
L 201.375 199.125 
L 191.25 209.25 
L 181.125 219.375 
L 171 229.5 
L 160.875 239.625 
" style="fill:none;stroke:#ff7f0e;stroke-linecap:square;stroke-width:1.5;"/>
   </g>
   <g id="line2d_33">
    <path clip-path="url(#p7fab666d2a)" d="M 343.125 300.375 
L 333 310.5 
L 322.875 320.625 
L 312.75 330.75 
L 302.625 340.875 
L 312.75 351 
L 322.875 361.125 
L 333 351 
L 322.875 340.875 
L 333 330.75 
L 343.125 320.625 
L 353.25 330.75 
L 363.375 340.875 
L 373.5 351 
L 383.625 361.125 
L 393.75 371.25 
L 403.875 381.375 
L 414 371.25 
L 424.125 361.125 
L 414 351 
L 403.875 340.875 
L 414 330.75 
L 424.125 320.625 
L 434.25 330.75 
L 444.375 340.875 
" style="fill:none;stroke:#2ca02c;stroke-linecap:square;stroke-width:1.5;"/>
   </g>
   <g id="line2d_34">
    <path clip-path="url(#p7fab666d2a)" d="M 768.375 502.875 
L 778.5 513 
L 788.625 523.125 
L 798.75 533.25 
L 808.875 543.375 
L 819 533.25 
L 829.125 523.125 
L 819 513 
L 808.875 523.125 
L 798.75 513 
L 788.625 502.875 
L 798.75 492.75 
L 808.875 482.625 
L 819 472.5 
L 829.125 462.375 
" style="fill:none;stroke:#d62728;stroke-linecap:square;stroke-width:1.5;"/>
   </g>
   <g id="line2d_35">
    <path clip-path="url(#p7fab666d2a)" d="M 930.375 502.875 
L 920.25 492.75 
L 910.125 482.625 
L 900 492.75 
L 889.875 502.875 
L 900 513 
L 910.125 523.125 
L 900 533.25 
L 889.875 543.375 
L 879.75 533.25 
L 869.625 523.125 
L 859.5 533.25 
L 849.375 543.375 
L 859.5 553.5 
L 869.625 563.625 
L 859.5 573.75 
L 849.375 583.875 
L 859.5 594 
L 869.625 604.125 
L 879.75 614.25 
L 889.875 624.375 
L 900 614.25 
L 910.125 604.125 
L 900 594 
L 889.875 583.875 
L 900 573.75 
L 910.125 563.625 
L 920.25 573.75 
L 930.375 583.875 
L 940.5 594 
L 950.625 604.125 
L 940.5 614.25 
L 930.375 624.375 
L 940.5 634.5 
L 950.625 644.625 
L 940.5 654.75 
L 930.375 664.875 
L 920.25 654.75 
L 910.125 644.625 
L 900 654.75 
L 889.875 664.875 
L 900 675 
L 910.125 685.125 
L 900 695.25 
L 889.875 705.375 
L 879.75 695.25 
L 869.625 685.125 
L 859.5 695.25 
L 849.375 705.375 
L 859.5 715.5 
L 869.625 725.625 
L 859.5 735.75 
L 849.375 745.875 
L 859.5 756 
L 869.625 766.125 
L 879.75 776.25 
L 889.875 786.375 
L 900 776.25 
L 910.125 766.125 
L 900 756 
L 889.875 766.125 
L 879.75 756 
L 869.625 745.875 
L 879.75 735.75 
L 889.875 725.625 
L 900 715.5 
L 910.125 705.375 
L 920.25 715.5 
L 930.375 725.625 
L 940.5 715.5 
L 950.625 705.375 
L 960.75 715.5 
L 970.875 725.625 
L 981 715.5 
L 991.125 705.375 
L 1001.25 695.25 
L 1011.375 685.125 
L 1001.25 675 
L 991.125 664.875 
L 981 675 
L 970.875 685.125 
L 960.75 675 
L 950.625 664.875 
L 960.75 654.75 
L 970.875 644.625 
L 981 634.5 
L 991.125 624.375 
" style="fill:none;stroke:#9467bd;stroke-linecap:square;stroke-width:1.5;"/>
   </g>
   <g id="line2d_36">
    <path clip-path="url(#p7fab666d2a)" d="M 970.875 563.625 
L 960.75 553.5 
L 950.625 543.375 
L 940.5 553.5 
L 930.375 563.625 
L 920.25 553.5 
L 910.125 543.375 
L 900 553.5 
L 889.875 563.625 
L 879.75 573.75 
L 869.625 583.875 
L 879.75 594 
L 889.875 604.125 
L 900 594 
L 910.125 583.875 
L 920.25 594 
L 930.375 604.125 
L 920.25 614.25 
L 910.125 624.375 
L 900 634.5 
L 889.875 644.625 
L 879.75 634.5 
L 869.625 624.375 
L 859.5 634.5 
L 849.375 644.625 
L 839.25 634.5 
L 829.125 624.375 
L 839.25 614.25 
L 849.375 604.125 
L 839.25 594 
L 829.125 583.875 
L 819 594 
L 808.875 604.125 
L 798.75 594 
L 788.625 583.875 
L 798.75 573.75 
L 808.875 563.625 
" style="fill:none;stroke:#8c564b;stroke-linecap:square;stroke-width:1.5;"/>
   </g>
   <g id="line2d_37">
    <path clip-path="url(#p7fab666d2a)" d="M 18 846 
L 1134 846 
L 1134 18 
L 18 18 
L 18 846 
" style="fill:none;stroke:#e377c2;stroke-linecap:square;stroke-width:1.5;"/>
   </g>
  </g>
 </g>
 <defs>
  <clipPath id="p7fab666d2a">
   <rect height="864" width="1152" x="0" y="0"/>
  </clipPath>
 </defs>
</svg>
